<mxfile host="Electron" agent="Mozilla/5.0 (Windows NT 10.0; Win64; x64) AppleWebKit/537.36 (KHTML, like Gecko) draw.io/24.7.17 Chrome/128.0.6613.36 Electron/32.0.1 Safari/537.36" version="24.7.17">
  <diagram name="Page-1" id="1IoqI19y8gQ4V1SydO90">
    <mxGraphModel dx="2578" dy="1016" grid="1" gridSize="10" guides="1" tooltips="1" connect="1" arrows="1" fold="1" page="1" pageScale="1" pageWidth="850" pageHeight="1100" math="0" shadow="0">
      <root>
        <mxCell id="0" />
        <mxCell id="1" parent="0" />
        <mxCell id="vOEnIp3CRmDWtRN5IHtj-1" value="USER&amp;nbsp;" style="rounded=0;whiteSpace=wrap;html=1;" vertex="1" parent="1">
          <mxGeometry x="30" y="240" width="120" height="60" as="geometry" />
        </mxCell>
        <mxCell id="vOEnIp3CRmDWtRN5IHtj-2" value="status" style="rounded=0;whiteSpace=wrap;html=1;" vertex="1" parent="1">
          <mxGeometry x="570" y="500" width="120" height="60" as="geometry" />
        </mxCell>
        <mxCell id="vOEnIp3CRmDWtRN5IHtj-3" value="Task" style="rounded=0;whiteSpace=wrap;html=1;" vertex="1" parent="1">
          <mxGeometry x="550" y="240" width="120" height="60" as="geometry" />
        </mxCell>
        <mxCell id="vOEnIp3CRmDWtRN5IHtj-4" value="has" style="rhombus;whiteSpace=wrap;html=1;" vertex="1" parent="1">
          <mxGeometry x="320" y="230" width="80" height="80" as="geometry" />
        </mxCell>
        <mxCell id="vOEnIp3CRmDWtRN5IHtj-7" value="User_name" style="ellipse;whiteSpace=wrap;html=1;aspect=fixed;" vertex="1" parent="1">
          <mxGeometry x="-10" y="110" width="80" height="80" as="geometry" />
        </mxCell>
        <mxCell id="vOEnIp3CRmDWtRN5IHtj-8" value="dob" style="ellipse;whiteSpace=wrap;html=1;aspect=fixed;" vertex="1" parent="1">
          <mxGeometry x="-150" y="158" width="80" height="80" as="geometry" />
        </mxCell>
        <mxCell id="vOEnIp3CRmDWtRN5IHtj-9" value="email" style="ellipse;whiteSpace=wrap;html=1;aspect=fixed;" vertex="1" parent="1">
          <mxGeometry x="80" y="100" width="80" height="80" as="geometry" />
        </mxCell>
        <mxCell id="vOEnIp3CRmDWtRN5IHtj-10" value="work_role" style="ellipse;whiteSpace=wrap;html=1;aspect=fixed;" vertex="1" parent="1">
          <mxGeometry x="-140" y="350" width="80" height="80" as="geometry" />
        </mxCell>
        <mxCell id="vOEnIp3CRmDWtRN5IHtj-11" value="age" style="ellipse;whiteSpace=wrap;html=1;aspect=fixed;" vertex="1" parent="1">
          <mxGeometry x="-150" y="248" width="80" height="80" as="geometry" />
        </mxCell>
        <mxCell id="vOEnIp3CRmDWtRN5IHtj-12" value="last name" style="ellipse;whiteSpace=wrap;html=1;aspect=fixed;" vertex="1" parent="1">
          <mxGeometry x="-30" width="80" height="80" as="geometry" />
        </mxCell>
        <mxCell id="vOEnIp3CRmDWtRN5IHtj-13" value="first name" style="ellipse;whiteSpace=wrap;html=1;aspect=fixed;" vertex="1" parent="1">
          <mxGeometry x="-120" y="70" width="80" height="80" as="geometry" />
        </mxCell>
        <mxCell id="vOEnIp3CRmDWtRN5IHtj-30" value="" style="endArrow=none;html=1;rounded=0;entryX=0;entryY=0;entryDx=0;entryDy=0;" edge="1" parent="1" source="vOEnIp3CRmDWtRN5IHtj-8" target="vOEnIp3CRmDWtRN5IHtj-1">
          <mxGeometry width="50" height="50" relative="1" as="geometry">
            <mxPoint x="20" y="350" as="sourcePoint" />
            <mxPoint x="70" y="300" as="targetPoint" />
          </mxGeometry>
        </mxCell>
        <mxCell id="vOEnIp3CRmDWtRN5IHtj-33" value="" style="endArrow=none;html=1;rounded=0;exitX=0.25;exitY=0;exitDx=0;exitDy=0;entryX=0.67;entryY=0.97;entryDx=0;entryDy=0;entryPerimeter=0;" edge="1" parent="1" source="vOEnIp3CRmDWtRN5IHtj-1" target="vOEnIp3CRmDWtRN5IHtj-7">
          <mxGeometry width="50" height="50" relative="1" as="geometry">
            <mxPoint x="-5" y="240" as="sourcePoint" />
            <mxPoint x="45" y="190" as="targetPoint" />
          </mxGeometry>
        </mxCell>
        <mxCell id="vOEnIp3CRmDWtRN5IHtj-34" value="" style="endArrow=none;html=1;rounded=0;entryX=0.5;entryY=1;entryDx=0;entryDy=0;exitX=0.582;exitY=-0.007;exitDx=0;exitDy=0;exitPerimeter=0;" edge="1" parent="1" source="vOEnIp3CRmDWtRN5IHtj-1" target="vOEnIp3CRmDWtRN5IHtj-9">
          <mxGeometry width="50" height="50" relative="1" as="geometry">
            <mxPoint x="98" y="237" as="sourcePoint" />
            <mxPoint x="150" y="180" as="targetPoint" />
          </mxGeometry>
        </mxCell>
        <mxCell id="vOEnIp3CRmDWtRN5IHtj-35" value="" style="endArrow=none;html=1;rounded=0;exitX=0.75;exitY=0;exitDx=0;exitDy=0;entryX=0;entryY=1;entryDx=0;entryDy=0;" edge="1" parent="1" source="vOEnIp3CRmDWtRN5IHtj-1" target="vOEnIp3CRmDWtRN5IHtj-41">
          <mxGeometry width="50" height="50" relative="1" as="geometry">
            <mxPoint x="140" y="230" as="sourcePoint" />
            <mxPoint x="190" y="180" as="targetPoint" />
          </mxGeometry>
        </mxCell>
        <mxCell id="vOEnIp3CRmDWtRN5IHtj-36" value="" style="endArrow=none;html=1;rounded=0;entryX=0.5;entryY=1;entryDx=0;entryDy=0;exitX=0.325;exitY=0.033;exitDx=0;exitDy=0;exitPerimeter=0;" edge="1" parent="1" source="vOEnIp3CRmDWtRN5IHtj-7" target="vOEnIp3CRmDWtRN5IHtj-12">
          <mxGeometry width="50" height="50" relative="1" as="geometry">
            <mxPoint x="16" y="110" as="sourcePoint" />
            <mxPoint x="110" y="70" as="targetPoint" />
          </mxGeometry>
        </mxCell>
        <mxCell id="vOEnIp3CRmDWtRN5IHtj-37" value="" style="endArrow=none;html=1;rounded=0;entryX=0.95;entryY=0.725;entryDx=0;entryDy=0;entryPerimeter=0;exitX=0.015;exitY=0.373;exitDx=0;exitDy=0;exitPerimeter=0;" edge="1" parent="1" source="vOEnIp3CRmDWtRN5IHtj-7" target="vOEnIp3CRmDWtRN5IHtj-13">
          <mxGeometry width="50" height="50" relative="1" as="geometry">
            <mxPoint x="-10" y="140" as="sourcePoint" />
            <mxPoint x="10" y="100" as="targetPoint" />
          </mxGeometry>
        </mxCell>
        <mxCell id="vOEnIp3CRmDWtRN5IHtj-41" value="id" style="ellipse;whiteSpace=wrap;html=1;aspect=fixed;" vertex="1" parent="1">
          <mxGeometry x="180" y="110" width="80" height="80" as="geometry" />
        </mxCell>
        <mxCell id="vOEnIp3CRmDWtRN5IHtj-44" value="1" style="text;html=1;align=center;verticalAlign=middle;resizable=0;points=[];autosize=1;strokeColor=none;fillColor=none;" vertex="1" parent="1">
          <mxGeometry x="215" y="238" width="30" height="30" as="geometry" />
        </mxCell>
        <mxCell id="vOEnIp3CRmDWtRN5IHtj-45" value="M" style="text;html=1;align=center;verticalAlign=middle;resizable=0;points=[];autosize=1;strokeColor=none;fillColor=none;" vertex="1" parent="1">
          <mxGeometry x="455" y="248" width="30" height="30" as="geometry" />
        </mxCell>
        <mxCell id="vOEnIp3CRmDWtRN5IHtj-46" value="title" style="ellipse;whiteSpace=wrap;html=1;aspect=fixed;" vertex="1" parent="1">
          <mxGeometry x="440" y="150" width="80" height="80" as="geometry" />
        </mxCell>
        <mxCell id="vOEnIp3CRmDWtRN5IHtj-47" value="id" style="ellipse;whiteSpace=wrap;html=1;aspect=fixed;" vertex="1" parent="1">
          <mxGeometry x="470" y="60" width="80" height="80" as="geometry" />
        </mxCell>
        <mxCell id="vOEnIp3CRmDWtRN5IHtj-49" value="Description" style="ellipse;whiteSpace=wrap;html=1;aspect=fixed;" vertex="1" parent="1">
          <mxGeometry x="700" y="80" width="80" height="80" as="geometry" />
        </mxCell>
        <mxCell id="vOEnIp3CRmDWtRN5IHtj-52" value="deadline" style="ellipse;whiteSpace=wrap;html=1;aspect=fixed;" vertex="1" parent="1">
          <mxGeometry x="700" y="168" width="80" height="80" as="geometry" />
        </mxCell>
        <mxCell id="vOEnIp3CRmDWtRN5IHtj-54" value="created date" style="ellipse;whiteSpace=wrap;html=1;aspect=fixed;" vertex="1" parent="1">
          <mxGeometry x="550" y="10" width="80" height="80" as="geometry" />
        </mxCell>
        <mxCell id="vOEnIp3CRmDWtRN5IHtj-56" value="task_type" style="ellipse;whiteSpace=wrap;html=1;aspect=fixed;" vertex="1" parent="1">
          <mxGeometry x="640" y="10" width="80" height="80" as="geometry" />
        </mxCell>
        <mxCell id="vOEnIp3CRmDWtRN5IHtj-57" value="" style="endArrow=none;html=1;rounded=0;exitX=1;exitY=1;exitDx=0;exitDy=0;entryX=0;entryY=0.131;entryDx=0;entryDy=0;entryPerimeter=0;" edge="1" parent="1" source="vOEnIp3CRmDWtRN5IHtj-46" target="vOEnIp3CRmDWtRN5IHtj-3">
          <mxGeometry width="50" height="50" relative="1" as="geometry">
            <mxPoint x="510" y="288" as="sourcePoint" />
            <mxPoint x="550" y="238" as="targetPoint" />
          </mxGeometry>
        </mxCell>
        <mxCell id="vOEnIp3CRmDWtRN5IHtj-58" value="" style="endArrow=none;html=1;rounded=0;exitX=0.167;exitY=0;exitDx=0;exitDy=0;exitPerimeter=0;entryX=0.729;entryY=1.004;entryDx=0;entryDy=0;entryPerimeter=0;" edge="1" parent="1" source="vOEnIp3CRmDWtRN5IHtj-3" target="vOEnIp3CRmDWtRN5IHtj-47">
          <mxGeometry width="50" height="50" relative="1" as="geometry">
            <mxPoint x="500" y="168" as="sourcePoint" />
            <mxPoint x="550" y="118" as="targetPoint" />
          </mxGeometry>
        </mxCell>
        <mxCell id="vOEnIp3CRmDWtRN5IHtj-59" value="" style="endArrow=none;html=1;rounded=0;entryX=0.5;entryY=1;entryDx=0;entryDy=0;exitX=0.417;exitY=0;exitDx=0;exitDy=0;exitPerimeter=0;" edge="1" parent="1" source="vOEnIp3CRmDWtRN5IHtj-3" target="vOEnIp3CRmDWtRN5IHtj-54">
          <mxGeometry width="50" height="50" relative="1" as="geometry">
            <mxPoint x="600" y="188" as="sourcePoint" />
            <mxPoint x="650" y="138" as="targetPoint" />
          </mxGeometry>
        </mxCell>
        <mxCell id="vOEnIp3CRmDWtRN5IHtj-60" value="" style="endArrow=none;html=1;rounded=0;entryX=0.281;entryY=0.963;entryDx=0;entryDy=0;entryPerimeter=0;exitX=0.5;exitY=0;exitDx=0;exitDy=0;" edge="1" parent="1" source="vOEnIp3CRmDWtRN5IHtj-3" target="vOEnIp3CRmDWtRN5IHtj-56">
          <mxGeometry width="50" height="50" relative="1" as="geometry">
            <mxPoint x="610" y="198" as="sourcePoint" />
            <mxPoint x="660" y="148" as="targetPoint" />
          </mxGeometry>
        </mxCell>
        <mxCell id="vOEnIp3CRmDWtRN5IHtj-61" value="" style="endArrow=none;html=1;rounded=0;entryX=0;entryY=0.625;entryDx=0;entryDy=0;entryPerimeter=0;exitX=0.667;exitY=0;exitDx=0;exitDy=0;exitPerimeter=0;" edge="1" parent="1" source="vOEnIp3CRmDWtRN5IHtj-3" target="vOEnIp3CRmDWtRN5IHtj-49">
          <mxGeometry width="50" height="50" relative="1" as="geometry">
            <mxPoint x="620" y="208" as="sourcePoint" />
            <mxPoint x="670" y="158" as="targetPoint" />
          </mxGeometry>
        </mxCell>
        <mxCell id="vOEnIp3CRmDWtRN5IHtj-62" value="" style="endArrow=none;html=1;rounded=0;entryX=-0.01;entryY=0.581;entryDx=0;entryDy=0;entryPerimeter=0;exitX=0.847;exitY=-0.022;exitDx=0;exitDy=0;exitPerimeter=0;" edge="1" parent="1" source="vOEnIp3CRmDWtRN5IHtj-3" target="vOEnIp3CRmDWtRN5IHtj-52">
          <mxGeometry width="50" height="50" relative="1" as="geometry">
            <mxPoint x="630" y="218" as="sourcePoint" />
            <mxPoint x="680" y="168" as="targetPoint" />
          </mxGeometry>
        </mxCell>
        <mxCell id="vOEnIp3CRmDWtRN5IHtj-64" value="" style="endArrow=none;html=1;rounded=0;" edge="1" parent="1">
          <mxGeometry width="50" height="50" relative="1" as="geometry">
            <mxPoint x="-68" y="283" as="sourcePoint" />
            <mxPoint x="30" y="263" as="targetPoint" />
          </mxGeometry>
        </mxCell>
        <mxCell id="vOEnIp3CRmDWtRN5IHtj-65" value="" style="endArrow=none;html=1;rounded=0;exitX=1;exitY=0;exitDx=0;exitDy=0;" edge="1" parent="1" source="vOEnIp3CRmDWtRN5IHtj-10">
          <mxGeometry width="50" height="50" relative="1" as="geometry">
            <mxPoint x="-20" y="330" as="sourcePoint" />
            <mxPoint x="30" y="280" as="targetPoint" />
          </mxGeometry>
        </mxCell>
        <mxCell id="vOEnIp3CRmDWtRN5IHtj-66" value="has" style="rhombus;whiteSpace=wrap;html=1;" vertex="1" parent="1">
          <mxGeometry x="580" y="360" width="80" height="80" as="geometry" />
        </mxCell>
        <mxCell id="vOEnIp3CRmDWtRN5IHtj-67" value="" style="endArrow=none;html=1;rounded=0;exitX=1;exitY=0.5;exitDx=0;exitDy=0;entryX=0;entryY=0.5;entryDx=0;entryDy=0;" edge="1" parent="1" source="vOEnIp3CRmDWtRN5IHtj-1" target="vOEnIp3CRmDWtRN5IHtj-4">
          <mxGeometry width="50" height="50" relative="1" as="geometry">
            <mxPoint x="350" y="240" as="sourcePoint" />
            <mxPoint x="400" y="190" as="targetPoint" />
          </mxGeometry>
        </mxCell>
        <mxCell id="vOEnIp3CRmDWtRN5IHtj-68" value="" style="endArrow=none;html=1;rounded=0;entryX=0;entryY=0.5;entryDx=0;entryDy=0;exitX=1;exitY=0.5;exitDx=0;exitDy=0;" edge="1" parent="1" source="vOEnIp3CRmDWtRN5IHtj-4" target="vOEnIp3CRmDWtRN5IHtj-3">
          <mxGeometry width="50" height="50" relative="1" as="geometry">
            <mxPoint x="350" y="240" as="sourcePoint" />
            <mxPoint x="400" y="190" as="targetPoint" />
          </mxGeometry>
        </mxCell>
        <mxCell id="vOEnIp3CRmDWtRN5IHtj-70" value="" style="endArrow=none;html=1;rounded=0;" edge="1" parent="1" source="vOEnIp3CRmDWtRN5IHtj-66">
          <mxGeometry width="50" height="50" relative="1" as="geometry">
            <mxPoint x="570" y="350" as="sourcePoint" />
            <mxPoint x="620" y="300" as="targetPoint" />
          </mxGeometry>
        </mxCell>
        <mxCell id="vOEnIp3CRmDWtRN5IHtj-71" value="" style="endArrow=none;html=1;rounded=0;" edge="1" parent="1">
          <mxGeometry width="50" height="50" relative="1" as="geometry">
            <mxPoint x="622" y="500" as="sourcePoint" />
            <mxPoint x="620" y="440" as="targetPoint" />
          </mxGeometry>
        </mxCell>
        <mxCell id="vOEnIp3CRmDWtRN5IHtj-72" value="beginning&amp;nbsp;" style="ellipse;whiteSpace=wrap;html=1;aspect=fixed;" vertex="1" parent="1">
          <mxGeometry x="700" y="580" width="80" height="80" as="geometry" />
        </mxCell>
        <mxCell id="vOEnIp3CRmDWtRN5IHtj-73" value="complete&amp;nbsp;" style="ellipse;whiteSpace=wrap;html=1;aspect=fixed;" vertex="1" parent="1">
          <mxGeometry x="710" y="490" width="80" height="80" as="geometry" />
        </mxCell>
        <mxCell id="vOEnIp3CRmDWtRN5IHtj-74" value="Not started" style="ellipse;whiteSpace=wrap;html=1;aspect=fixed;" vertex="1" parent="1">
          <mxGeometry x="700" y="400" width="80" height="80" as="geometry" />
        </mxCell>
        <mxCell id="vOEnIp3CRmDWtRN5IHtj-78" value="Half final" style="ellipse;whiteSpace=wrap;html=1;aspect=fixed;" vertex="1" parent="1">
          <mxGeometry x="600" y="600" width="80" height="80" as="geometry" />
        </mxCell>
        <mxCell id="vOEnIp3CRmDWtRN5IHtj-79" value="" style="endArrow=none;html=1;rounded=0;exitX=0;exitY=0;exitDx=0;exitDy=0;" edge="1" parent="1" source="vOEnIp3CRmDWtRN5IHtj-72">
          <mxGeometry width="50" height="50" relative="1" as="geometry">
            <mxPoint x="630" y="610" as="sourcePoint" />
            <mxPoint x="680" y="560" as="targetPoint" />
          </mxGeometry>
        </mxCell>
        <mxCell id="vOEnIp3CRmDWtRN5IHtj-80" value="" style="endArrow=none;html=1;rounded=0;exitX=0.4;exitY=0.006;exitDx=0;exitDy=0;exitPerimeter=0;" edge="1" parent="1" source="vOEnIp3CRmDWtRN5IHtj-78">
          <mxGeometry width="50" height="50" relative="1" as="geometry">
            <mxPoint x="580" y="610" as="sourcePoint" />
            <mxPoint x="630" y="560" as="targetPoint" />
          </mxGeometry>
        </mxCell>
        <mxCell id="vOEnIp3CRmDWtRN5IHtj-81" value="" style="endArrow=none;html=1;rounded=0;exitX=0.99;exitY=0.612;exitDx=0;exitDy=0;exitPerimeter=0;" edge="1" parent="1" source="vOEnIp3CRmDWtRN5IHtj-2">
          <mxGeometry width="50" height="50" relative="1" as="geometry">
            <mxPoint x="660" y="575" as="sourcePoint" />
            <mxPoint x="710" y="525" as="targetPoint" />
          </mxGeometry>
        </mxCell>
        <mxCell id="vOEnIp3CRmDWtRN5IHtj-82" value="" style="endArrow=none;html=1;rounded=0;exitX=0.804;exitY=-0.004;exitDx=0;exitDy=0;exitPerimeter=0;" edge="1" parent="1" source="vOEnIp3CRmDWtRN5IHtj-2">
          <mxGeometry width="50" height="50" relative="1" as="geometry">
            <mxPoint x="655" y="510" as="sourcePoint" />
            <mxPoint x="705" y="460" as="targetPoint" />
          </mxGeometry>
        </mxCell>
        <mxCell id="vOEnIp3CRmDWtRN5IHtj-83" value="1" style="text;html=1;align=center;verticalAlign=middle;resizable=0;points=[];autosize=1;strokeColor=none;fillColor=none;" vertex="1" parent="1">
          <mxGeometry x="615" y="308" width="30" height="30" as="geometry" />
        </mxCell>
        <mxCell id="vOEnIp3CRmDWtRN5IHtj-84" value="1" style="text;html=1;align=center;verticalAlign=middle;resizable=0;points=[];autosize=1;strokeColor=none;fillColor=none;" vertex="1" parent="1">
          <mxGeometry x="615" y="448" width="30" height="30" as="geometry" />
        </mxCell>
        <mxCell id="vOEnIp3CRmDWtRN5IHtj-85" value="has&amp;nbsp;" style="rhombus;whiteSpace=wrap;html=1;" vertex="1" parent="1">
          <mxGeometry x="50" y="360" width="80" height="80" as="geometry" />
        </mxCell>
        <mxCell id="vOEnIp3CRmDWtRN5IHtj-86" value="Task_history" style="rounded=0;whiteSpace=wrap;html=1;" vertex="1" parent="1">
          <mxGeometry x="40" y="500" width="120" height="60" as="geometry" />
        </mxCell>
        <mxCell id="vOEnIp3CRmDWtRN5IHtj-87" value="" style="endArrow=none;html=1;rounded=0;exitX=0.5;exitY=0;exitDx=0;exitDy=0;" edge="1" parent="1" source="vOEnIp3CRmDWtRN5IHtj-85">
          <mxGeometry width="50" height="50" relative="1" as="geometry">
            <mxPoint x="40" y="350" as="sourcePoint" />
            <mxPoint x="90" y="300" as="targetPoint" />
          </mxGeometry>
        </mxCell>
        <mxCell id="vOEnIp3CRmDWtRN5IHtj-88" value="" style="endArrow=none;html=1;rounded=0;exitX=0.414;exitY=0.006;exitDx=0;exitDy=0;exitPerimeter=0;" edge="1" parent="1" source="vOEnIp3CRmDWtRN5IHtj-86">
          <mxGeometry width="50" height="50" relative="1" as="geometry">
            <mxPoint x="40" y="490" as="sourcePoint" />
            <mxPoint x="90" y="440" as="targetPoint" />
          </mxGeometry>
        </mxCell>
        <mxCell id="vOEnIp3CRmDWtRN5IHtj-89" value="Complete History" style="ellipse;whiteSpace=wrap;html=1;aspect=fixed;" vertex="1" parent="1">
          <mxGeometry x="-70" y="420" width="80" height="80" as="geometry" />
        </mxCell>
        <mxCell id="vOEnIp3CRmDWtRN5IHtj-90" value="Due history" style="ellipse;whiteSpace=wrap;html=1;aspect=fixed;" vertex="1" parent="1">
          <mxGeometry x="30" y="640" width="80" height="80" as="geometry" />
        </mxCell>
        <mxCell id="vOEnIp3CRmDWtRN5IHtj-91" value="warning&amp;nbsp;" style="ellipse;whiteSpace=wrap;html=1;aspect=fixed;" vertex="1" parent="1">
          <mxGeometry x="-70" y="580" width="80" height="80" as="geometry" />
        </mxCell>
        <mxCell id="vOEnIp3CRmDWtRN5IHtj-92" value="Not complete&amp;nbsp;" style="ellipse;whiteSpace=wrap;html=1;aspect=fixed;" vertex="1" parent="1">
          <mxGeometry x="-140" y="478" width="80" height="80" as="geometry" />
        </mxCell>
        <mxCell id="vOEnIp3CRmDWtRN5IHtj-93" value="" style="endArrow=none;html=1;rounded=0;exitX=1;exitY=0;exitDx=0;exitDy=0;" edge="1" parent="1" source="vOEnIp3CRmDWtRN5IHtj-91">
          <mxGeometry width="50" height="50" relative="1" as="geometry">
            <mxPoint y="590" as="sourcePoint" />
            <mxPoint x="40" y="540" as="targetPoint" />
          </mxGeometry>
        </mxCell>
        <mxCell id="vOEnIp3CRmDWtRN5IHtj-94" value="" style="endArrow=none;html=1;rounded=0;exitX=1;exitY=0.5;exitDx=0;exitDy=0;" edge="1" parent="1" source="vOEnIp3CRmDWtRN5IHtj-92">
          <mxGeometry width="50" height="50" relative="1" as="geometry">
            <mxPoint x="-10" y="570" as="sourcePoint" />
            <mxPoint x="40" y="520" as="targetPoint" />
          </mxGeometry>
        </mxCell>
        <mxCell id="vOEnIp3CRmDWtRN5IHtj-95" value="" style="endArrow=none;html=1;rounded=0;exitX=0.953;exitY=0.767;exitDx=0;exitDy=0;exitPerimeter=0;" edge="1" parent="1" source="vOEnIp3CRmDWtRN5IHtj-89">
          <mxGeometry width="50" height="50" relative="1" as="geometry">
            <mxPoint x="-10" y="550" as="sourcePoint" />
            <mxPoint x="40" y="500" as="targetPoint" />
          </mxGeometry>
        </mxCell>
        <mxCell id="vOEnIp3CRmDWtRN5IHtj-96" value="" style="endArrow=none;html=1;rounded=0;exitX=0.5;exitY=0;exitDx=0;exitDy=0;" edge="1" parent="1" source="vOEnIp3CRmDWtRN5IHtj-90">
          <mxGeometry width="50" height="50" relative="1" as="geometry">
            <mxPoint x="30" y="610" as="sourcePoint" />
            <mxPoint x="80" y="560" as="targetPoint" />
          </mxGeometry>
        </mxCell>
        <mxCell id="vOEnIp3CRmDWtRN5IHtj-97" value="1" style="text;html=1;align=center;verticalAlign=middle;resizable=0;points=[];autosize=1;strokeColor=none;fillColor=none;" vertex="1" parent="1">
          <mxGeometry x="95" y="308" width="30" height="30" as="geometry" />
        </mxCell>
        <mxCell id="vOEnIp3CRmDWtRN5IHtj-98" value="M" style="text;html=1;align=center;verticalAlign=middle;resizable=0;points=[];autosize=1;strokeColor=none;fillColor=none;" vertex="1" parent="1">
          <mxGeometry x="85" y="448" width="30" height="30" as="geometry" />
        </mxCell>
        <mxCell id="vOEnIp3CRmDWtRN5IHtj-99" value="can be" style="rhombus;whiteSpace=wrap;html=1;" vertex="1" parent="1">
          <mxGeometry x="330" y="490" width="80" height="80" as="geometry" />
        </mxCell>
        <mxCell id="vOEnIp3CRmDWtRN5IHtj-100" value="" style="endArrow=none;html=1;rounded=0;entryX=0;entryY=0.5;entryDx=0;entryDy=0;exitX=1;exitY=0.5;exitDx=0;exitDy=0;" edge="1" parent="1" source="vOEnIp3CRmDWtRN5IHtj-86" target="vOEnIp3CRmDWtRN5IHtj-99">
          <mxGeometry width="50" height="50" relative="1" as="geometry">
            <mxPoint x="160" y="530" as="sourcePoint" />
            <mxPoint x="210" y="480" as="targetPoint" />
          </mxGeometry>
        </mxCell>
        <mxCell id="vOEnIp3CRmDWtRN5IHtj-102" value="" style="endArrow=none;html=1;rounded=0;entryX=0;entryY=0.5;entryDx=0;entryDy=0;" edge="1" parent="1" target="vOEnIp3CRmDWtRN5IHtj-2">
          <mxGeometry width="50" height="50" relative="1" as="geometry">
            <mxPoint x="410" y="530" as="sourcePoint" />
            <mxPoint x="460" y="480" as="targetPoint" />
          </mxGeometry>
        </mxCell>
        <mxCell id="vOEnIp3CRmDWtRN5IHtj-104" value="delete" style="rounded=0;whiteSpace=wrap;html=1;" vertex="1" parent="1">
          <mxGeometry x="310" y="640" width="120" height="60" as="geometry" />
        </mxCell>
        <mxCell id="vOEnIp3CRmDWtRN5IHtj-105" value="" style="endArrow=none;html=1;rounded=0;exitX=0.5;exitY=0;exitDx=0;exitDy=0;" edge="1" parent="1" source="vOEnIp3CRmDWtRN5IHtj-104">
          <mxGeometry width="50" height="50" relative="1" as="geometry">
            <mxPoint x="320" y="620" as="sourcePoint" />
            <mxPoint x="370" y="570" as="targetPoint" />
          </mxGeometry>
        </mxCell>
        <mxCell id="vOEnIp3CRmDWtRN5IHtj-106" value="1" style="text;html=1;align=center;verticalAlign=middle;resizable=0;points=[];autosize=1;strokeColor=none;fillColor=none;" vertex="1" parent="1">
          <mxGeometry x="235" y="498" width="30" height="30" as="geometry" />
        </mxCell>
        <mxCell id="vOEnIp3CRmDWtRN5IHtj-107" value="1" style="text;html=1;align=center;verticalAlign=middle;resizable=0;points=[];autosize=1;strokeColor=none;fillColor=none;" vertex="1" parent="1">
          <mxGeometry x="495" y="508" width="30" height="30" as="geometry" />
        </mxCell>
        <mxCell id="vOEnIp3CRmDWtRN5IHtj-108" value="1" style="text;html=1;align=center;verticalAlign=middle;resizable=0;points=[];autosize=1;strokeColor=none;fillColor=none;" vertex="1" parent="1">
          <mxGeometry x="345" y="568" width="30" height="30" as="geometry" />
        </mxCell>
      </root>
    </mxGraphModel>
  </diagram>
</mxfile>
